<?xml version="1.0" encoding="UTF-8"?>
<svg xmlns="http://www.w3.org/2000/svg" version="1.1" viewBox="8 90 142 18">
  <defs>
    <style>
      .st1 {
        fill: #0a0a0a;
      }
    </style>
  </defs>
  <g id="Layer_1">
    <g>
      <path class="st1" d="M42.37,90.67c-4.41,0-9.13,1.91-9.13,7.26,0,4.76,3.72,6.79,7.65,7.18v-2.39c-3.04-.41-4.81-2.13-4.81-4.79,0-3.6,3.25-4.89,6.29-4.89s6.25,1.28,6.25,4.89c0,2.66-1.77,4.39-4.81,4.79v2.39c3.93-.39,7.67-2.41,7.67-7.19,0-5.35-4.7-7.26-9.11-7.26Z"/>
      <g>
        <rect class="st1" x="18.26" y="97.59" width="8.99" height="2.37"/>
        <polygon class="st1" points="13.1 92.73 13.1 105.78 15.67 105.78 15.67 95.84 15.67 95.84 15.67 95.06 27.25 95.06 27.25 92.73 13.1 92.73"/>
      </g>
      <path class="st1" d="M67.71,100.5h.57c2.54,0,4.25-1.59,4.25-3.96s-1.72-3.81-4.27-3.81h-10.82v13.05h2.57v-10.74h7.85c.5,0,2.12.11,2.12,1.53,0,1.55-1.37,1.72-1.95,1.72h-5.44v2.24h1.79l4.97,5.25h3.5l-5.14-5.29Z"/>
      <g>
        <polygon class="st1" points="79.62 98.21 79.62 105.78 82.19 105.78 82.19 100.1 79.62 98.21"/>
        <polygon class="st1" points="97.87 92.44 89.08 98.83 80.29 92.44 79.62 92.44 79.62 95.03 88.84 101.78 89.26 101.78 95.99 96.88 95.99 105.78 98.56 105.78 98.56 92.44 97.87 92.44"/>
      </g>
      <polygon class="st1" points="115.21 92.53 113.19 92.53 104.73 105.78 107.82 105.78 109.56 102.97 115.65 102.97 114.22 100.66 110.99 100.66 114.18 95.53 120.51 105.78 123.67 105.78 115.21 92.53"/>
      <g>
        <polygon class="st1" points="133.59 101.02 128.15 105.78 132.03 105.78 135.51 102.72 133.59 101.02"/>
        <polygon class="st1" points="146.9 92.73 143.02 92.73 137.53 97.57 132.08 92.73 128.15 92.73 142.93 105.78 146.88 105.78 139.44 99.26 146.9 92.73"/>
      </g>
    </g>
  </g>
</svg>
